<svg xmlns="http://www.w3.org/2000/svg" xmlns:xlink="http://www.w3.org/1999/xlink" contentStyleType="text/css" height="292px" preserveAspectRatio="none" style="width:1705px;height:292px;background:#FFFFFF;" version="1.1" viewBox="0 0 1705 292" width="1705px" zoomAndPan="magnify"><title>Context &#8212; Serial2CAN in the X-COM layer</title><defs/><g><text fill="#000000" font-family="DejaVu Sans" font-size="22" font-weight="bold" lengthAdjust="spacing" textLength="513.0898" x="591.7983" y="35.4209">Context &#8212; Serial2CAN in the X-COM layer</text><!--cluster Serial ECUs--><g id="cluster_Serial ECUs"><polygon fill="#FFFFFF" points="21,67.6094,31,57.6094,230,57.6094,230,265.6094,220,275.6094,21,275.6094,21,67.6094" style="stroke:#000000;stroke-width:1.0;"/><line style="stroke:#000000;stroke-width:1.0;" x1="220" x2="230" y1="67.6094" y2="57.6094"/><line style="stroke:#000000;stroke-width:1.0;" x1="21" x2="220" y1="67.6094" y2="67.6094"/><line style="stroke:#000000;stroke-width:1.0;" x1="220" x2="220" y1="67.6094" y2="275.6094"/><text fill="#000000" font-family="DejaVu Sans" font-size="14" font-weight="bold" lengthAdjust="spacing" textLength="89.9404" x="76.5298" y="83.6045">Serial ECUs</text></g><!--entity A--><g id="elem_A"><rect fill="#FFFFFF" height="62.5938" rx="2.5" ry="2.5" style="stroke:#000000;stroke-width:1.0;" width="158.0977" x="46.5" y="98.1094"/><rect fill="#FFFFFF" height="10" style="stroke:#000000;stroke-width:1.0;" width="15" x="184.5977" y="103.1094"/><rect fill="#FFFFFF" height="2" style="stroke:#000000;stroke-width:1.0;" width="4" x="182.5977" y="105.1094"/><rect fill="#FFFFFF" height="2" style="stroke:#000000;stroke-width:1.0;" width="4" x="182.5977" y="109.1094"/><text fill="#000000" font-family="DejaVu Sans" font-size="14" lengthAdjust="spacing" textLength="118.0977" x="61.5" y="131.1045">AZ3166 ThreadX</text><text fill="#000000" font-family="DejaVu Sans" font-size="14" lengthAdjust="spacing" textLength="70.5742" x="61.5" y="147.4014">zonal ECU</text></g><!--entity B--><g id="elem_B"><rect fill="#FFFFFF" height="62.5938" rx="2.5" ry="2.5" style="stroke:#000000;stroke-width:1.0;" width="176.7803" x="37" y="196.1094"/><rect fill="#FFFFFF" height="10" style="stroke:#000000;stroke-width:1.0;" width="15" x="193.7803" y="201.1094"/><rect fill="#FFFFFF" height="2" style="stroke:#000000;stroke-width:1.0;" width="4" x="191.7803" y="203.1094"/><rect fill="#FFFFFF" height="2" style="stroke:#000000;stroke-width:1.0;" width="4" x="191.7803" y="207.1094"/><text fill="#000000" font-family="DejaVu Sans" font-size="14" lengthAdjust="spacing" textLength="136.7803" x="52" y="229.1045">S32K148 OpenBSW</text><text fill="#000000" font-family="DejaVu Sans" font-size="14" lengthAdjust="spacing" textLength="67.5254" x="52" y="245.4014">(planned)</text></g><!--entity S--><g id="elem_S"><rect fill="#E8F1FB" height="36.2969" rx="2.5" ry="2.5" style="stroke:#000000;stroke-width:1.0;" width="147.7158" x="400" y="156.6094"/><text fill="#000000" font-family="DejaVu Sans" font-size="14" lengthAdjust="spacing" textLength="127.7158" x="410" y="179.6045">Serial2CAN bridge</text></g><!--entity BUS--><g id="elem_BUS"><path d="M688,153.1094 L852.4443,153.1094 C857.4443,153.1094 857.4443,174.4063 857.4443,174.4063 C857.4443,174.4063 857.4443,195.7031 852.4443,195.7031 L688,195.7031 C683,195.7031 683,174.4063 683,174.4063 C683,174.4063 683,153.1094 688,153.1094 " fill="#FFFFFF" style="stroke:#000000;stroke-width:1.0;"/><path d="M852.4443,153.1094 C847.4443,153.1094 847.4443,174.4063 847.4443,174.4063 C847.4443,195.7031 852.4443,195.7031 852.4443,195.7031 " fill="none" style="stroke:#000000;stroke-width:1.0;"/><text fill="#000000" font-family="DejaVu Sans" font-size="14" lengthAdjust="spacing" textLength="59.3291" x="688" y="171.1045">CAN bus</text><text fill="#000000" font-family="DejaVu Sans" font-size="14" lengthAdjust="spacing" textLength="154.4443" x="688" y="187.4014">vcan0 | udp_multicast</text></g><!--entity Z--><g id="elem_Z"><rect fill="#FFFFFF" height="62.5938" rx="2.5" ry="2.5" style="stroke:#000000;stroke-width:1.0;" width="172.6172" x="923.5" y="73.1094"/><rect fill="#FFFFFF" height="10" style="stroke:#000000;stroke-width:1.0;" width="15" x="1076.1172" y="78.1094"/><rect fill="#FFFFFF" height="2" style="stroke:#000000;stroke-width:1.0;" width="4" x="1074.1172" y="80.1094"/><rect fill="#FFFFFF" height="2" style="stroke:#000000;stroke-width:1.0;" width="4" x="1074.1172" y="84.1094"/><text fill="#000000" font-family="DejaVu Sans" font-size="14" lengthAdjust="spacing" textLength="132.6172" x="938.5" y="106.1045">Zenoh2CAN bridge</text><text fill="#000000" font-family="DejaVu Sans" font-size="14" lengthAdjust="spacing" textLength="89.0791" x="938.5" y="122.4014">(unchanged)</text></g><!--entity R--><g id="elem_R"><rect fill="#FFFFFF" height="46.2969" rx="2.5" ry="2.5" style="stroke:#000000;stroke-width:1.0;" width="132.0186" x="1261" y="81.6094"/><rect fill="#FFFFFF" height="10" style="stroke:#000000;stroke-width:1.0;" width="15" x="1373.0186" y="86.6094"/><rect fill="#FFFFFF" height="2" style="stroke:#000000;stroke-width:1.0;" width="4" x="1371.0186" y="88.6094"/><rect fill="#FFFFFF" height="2" style="stroke:#000000;stroke-width:1.0;" width="4" x="1371.0186" y="92.6094"/><text fill="#000000" font-family="DejaVu Sans" font-size="14" lengthAdjust="spacing" textLength="92.0186" x="1276" y="114.6045">Zenoh router</text></g><!--entity X--><g id="elem_X"><rect fill="#FFFFFF" height="62.5938" rx="2.5" ry="2.5" style="stroke:#000000;stroke-width:1.0;" width="245.6865" x="1454" y="73.1094"/><rect fill="#FFFFFF" height="10" style="stroke:#000000;stroke-width:1.0;" width="15" x="1679.6865" y="78.1094"/><rect fill="#FFFFFF" height="2" style="stroke:#000000;stroke-width:1.0;" width="4" x="1677.6865" y="80.1094"/><rect fill="#FFFFFF" height="2" style="stroke:#000000;stroke-width:1.0;" width="4" x="1677.6865" y="84.1094"/><text fill="#000000" font-family="DejaVu Sans" font-size="14" lengthAdjust="spacing" textLength="205.6865" x="1469" y="106.1045">X-Verse: VCU, virtual vehicle,</text><text fill="#000000" font-family="DejaVu Sans" font-size="14" lengthAdjust="spacing" textLength="161.5947" x="1469" y="122.4014">CARLA, Manual Control</text></g><!--entity T--><g id="elem_T"><rect fill="#FFFFFF" height="46.2969" rx="2.5" ry="2.5" style="stroke:#000000;stroke-width:1.0;" width="184.1904" x="918" y="171.6094"/><rect fill="#FFFFFF" height="10" style="stroke:#000000;stroke-width:1.0;" width="15" x="1082.1904" y="176.6094"/><rect fill="#FFFFFF" height="2" style="stroke:#000000;stroke-width:1.0;" width="4" x="1080.1904" y="178.6094"/><rect fill="#FFFFFF" height="2" style="stroke:#000000;stroke-width:1.0;" width="4" x="1080.1904" y="182.6094"/><text fill="#000000" font-family="DejaVu Sans" font-size="14" lengthAdjust="spacing" textLength="144.1904" x="933" y="204.6045">candump / test tools</text></g><!--link A to S--><g id="link_A_S"><path d="M210.64,140.5325 C269.13,148.1325 336.6401,156.896 393.8801,164.336 " fill="none" id="A-S" style="stroke:#000000;stroke-width:1.0;"/><polygon fill="#000000" points="204.69,139.7594,213.0996,144.8857,209.6483,140.4036,214.1304,136.9524,204.69,139.7594" style="stroke:#000000;stroke-width:1.0;"/><polygon fill="#000000" points="399.83,165.1094,391.4207,159.9827,394.8717,164.4649,390.3895,167.916,399.83,165.1094" style="stroke:#000000;stroke-width:1.0;"/><text fill="#000000" font-family="DejaVu Sans" font-size="13" lengthAdjust="spacing" textLength="122.0337" x="247" y="141.6763">SLCAN / USB UART</text></g><!--link B to S--><g id="link_B_S"><path d="M220.3111,213.2624 C277.6611,204.4924 339.769,194.9864 393.909,186.7064 " fill="none" id="B-S" style="stroke:#000000;stroke-width:1.0;"/><polygon fill="#000000" points="214.38,214.1694,223.8812,216.7629,219.3225,213.4136,222.6719,208.8549,214.38,214.1694" style="stroke:#000000;stroke-width:1.0;"/><polygon fill="#000000" points="399.84,185.7994,390.3387,183.206,394.8975,186.5553,391.5482,191.114,399.84,185.7994" style="stroke:#000000;stroke-width:1.0;"/><text fill="#000000" font-family="DejaVu Sans" font-size="13" lengthAdjust="spacing" textLength="122.0337" x="247" y="188.6763">SLCAN / USB UART</text></g><!--link S to BUS--><g id="link_S_BUS"><path d="M554.05,174.6094 C594.87,174.6094 633.97,174.6094 676.74,174.6094 " fill="none" id="S-BUS" style="stroke:#000000;stroke-width:1.0;"/><polygon fill="#000000" points="548.05,174.6094,557.05,178.6094,553.05,174.6094,557.05,170.6094,548.05,174.6094" style="stroke:#000000;stroke-width:1.0;"/><polygon fill="#000000" points="682.74,174.6094,673.74,170.6094,677.74,174.6094,673.74,178.6094,682.74,174.6094" style="stroke:#000000;stroke-width:1.0;"/><text fill="#000000" font-family="DejaVu Sans" font-size="13" lengthAdjust="spacing" textLength="73.5186" x="579" y="170.6763">python-can</text></g><!--link BUS to Z--><g id="link_BUS_Z"><path d="M850.1062,151.3464 C875.0962,143.9964 891.7539,139.0926 917.6239,131.4826 " fill="none" id="BUS-Z" style="stroke:#000000;stroke-width:1.0;"/><polygon fill="#000000" points="844.35,153.0394,854.113,154.3373,849.1468,151.6285,851.8556,146.6624,844.35,153.0394" style="stroke:#000000;stroke-width:1.0;"/><polygon fill="#000000" points="923.38,129.7894,913.617,128.4918,918.5832,131.2004,915.8746,136.1666,923.38,129.7894" style="stroke:#000000;stroke-width:1.0;"/></g><!--link Z to R--><g id="link_Z_R"><path d="M1102.66,104.6094 C1154.4,104.6094 1207.3,104.6094 1254.85,104.6094 " fill="none" id="Z-R" style="stroke:#000000;stroke-width:1.0;"/><polygon fill="#000000" points="1096.66,104.6094,1105.66,108.6094,1101.66,104.6094,1105.66,100.6094,1096.66,104.6094" style="stroke:#000000;stroke-width:1.0;"/><polygon fill="#000000" points="1260.85,104.6094,1251.85,100.6094,1255.85,104.6094,1251.85,108.6094,1260.85,104.6094" style="stroke:#000000;stroke-width:1.0;"/><text fill="#000000" font-family="DejaVu Sans" font-size="13" lengthAdjust="spacing" textLength="83.6875" x="1139.7285" y="85.6763">vcu/control/*</text><text fill="#000000" font-family="DejaVu Sans" font-size="13" lengthAdjust="spacing" textLength="97.1445" x="1133" y="100.8091">vehicle/lights/*</text></g><!--link R to X--><g id="link_R_X"><path d="M1399.16,104.6094 C1417.82,104.6094 1426.79,104.6094 1447.69,104.6094 " fill="none" id="R-X" style="stroke:#000000;stroke-width:1.0;"/><polygon fill="#000000" points="1393.16,104.6094,1402.16,108.6094,1398.16,104.6094,1402.16,100.6094,1393.16,104.6094" style="stroke:#000000;stroke-width:1.0;"/><polygon fill="#000000" points="1453.69,104.6094,1444.69,100.6094,1448.69,104.6094,1444.69,108.6094,1453.69,104.6094" style="stroke:#000000;stroke-width:1.0;"/></g><!--link BUS to T--><g id="link_BUS_T"><path d="M863.239,182.3604 C882.929,184.0104 891.951,184.7774 911.841,186.4474 " fill="none" id="BUS-T" style="stroke:#000000;stroke-width:1.0;"/><polygon fill="#000000" points="857.26,181.8594,865.8945,186.597,862.2425,182.2769,866.5626,178.6249,857.26,181.8594" style="stroke:#000000;stroke-width:1.0;"/><polygon fill="#000000" points="917.82,186.9494,909.1862,182.2104,912.8375,186.531,908.5169,190.1823,917.82,186.9494" style="stroke:#000000;stroke-width:1.0;"/></g><!--SRC=[VP7TRjD048Nlzoc6S0DLB9CMLLLL8TcckQ4_aXq7omb2Yps95pQpPdz2_v1u29wG9s7Nfj0hxgmvt_4vC_lCThX3w2KNnCmNGJtNV0SjRhYJTgx8Nd6lJzxYPxvqK70oaoUSwNYhlWdQmePBWymAAn4oRyCR2xz-_8G2jU3oC4kkG13uDAYYxFeI9Bz5pIHkB5W5Mcmx2wtGs5YXY95gVUZeXVEiD1EuPm2hf3wQ7H_3ejF8ssfDTuf6u0Dm0qb0YgF3TxFN9t3T8wN5-pMzyCiHOVjoO5BsdOKKJblvDsAezqcBTekJ01Nm_FnaFfkdxAj3vx51TsPD-uRJAtW0r_OVT_v2ek763fwqBDYgHbBTax_vT4TDvyCUy-i_46ZbBEfXbhDL5IrH6po5PLPEOI-qTNwnFNQYaJXTKvRa5yaKBZc5UJYmLd8mLspbExLkrqCC5asufv9cq1OiWRCeUkCNEeNY8lIAeInIA9DymTB_QCMe-QMysj_QJb7aOrWO34hDwl4Zzy2-SN4pTeeF_976sh4ChshY0vQFQFNFllWD]--></g></svg>