<svg xmlns="http://www.w3.org/2000/svg" xmlns:xlink="http://www.w3.org/1999/xlink" contentStyleType="text/css" height="1011px" preserveAspectRatio="none" style="width:895px;height:1011px;background:#FFFFFF;" version="1.1" viewBox="0 0 895 1011" width="895px" zoomAndPan="magnify"><title>Deployment view</title><defs/><g><text fill="#000000" font-family="DejaVu Sans" font-size="22" font-weight="bold" lengthAdjust="spacing" textLength="214.7363" x="335.6318" y="35.4209">Deployment view</text><!--cluster PC--><g id="cluster_PC"><polygon fill="#FFFFFF" points="65,67.6094,75,57.6094,279,57.6094,279,427.6094,269,437.6094,65,437.6094,65,67.6094" style="stroke:#000000;stroke-width:1.0;"/><line style="stroke:#000000;stroke-width:1.0;" x1="269" x2="279" y1="67.6094" y2="57.6094"/><line style="stroke:#000000;stroke-width:1.0;" x1="65" x2="269" y1="67.6094" y2="67.6094"/><line style="stroke:#000000;stroke-width:1.0;" x1="269" x2="269" y1="67.6094" y2="437.6094"/><text fill="#000000" font-family="DejaVu Sans" font-size="14" font-weight="bold" lengthAdjust="spacing" textLength="122.124" x="106.938" y="83.6045">Host PC (Linux)</text></g><!--cluster BOARD--><g id="cluster_BOARD"><polygon fill="#FFFFFF" points="21,496.6094,31,486.6094,878,486.6094,878,984.6094,868,994.6094,21,994.6094,21,496.6094" style="stroke:#000000;stroke-width:1.0;"/><line style="stroke:#000000;stroke-width:1.0;" x1="868" x2="878" y1="496.6094" y2="486.6094"/><line style="stroke:#000000;stroke-width:1.0;" x1="21" x2="868" y1="496.6094" y2="496.6094"/><line style="stroke:#000000;stroke-width:1.0;" x1="868" x2="868" y1="496.6094" y2="994.6094"/><text fill="#000000" font-family="DejaVu Sans" font-size="14" font-weight="bold" lengthAdjust="spacing" textLength="124.6123" x="383.1938" y="512.6045">MXChip AZ3166</text></g><!--cluster STL--><g id="cluster_STL"><polygon fill="#FFFFFF" points="82,544.6094,92,534.6094,487,534.6094,487,643.6094,477,653.6094,82,653.6094,82,544.6094" style="stroke:#000000;stroke-width:1.0;"/><line style="stroke:#000000;stroke-width:1.0;" x1="477" x2="487" y1="544.6094" y2="534.6094"/><line style="stroke:#000000;stroke-width:1.0;" x1="82" x2="477" y1="544.6094" y2="544.6094"/><line style="stroke:#000000;stroke-width:1.0;" x1="477" x2="477" y1="544.6094" y2="653.6094"/><text fill="#000000" font-family="DejaVu Sans" font-size="14" font-weight="bold" lengthAdjust="spacing" textLength="103.3799" x="228.8101" y="560.6045">ST-LINK/V2-1</text></g><!--cluster MCU--><g id="cluster_MCU"><polygon fill="#FFFFFF" points="45,712.6094,55,702.6094,854,702.6094,854,960.6094,844,970.6094,45,970.6094,45,712.6094" style="stroke:#000000;stroke-width:1.0;"/><line style="stroke:#000000;stroke-width:1.0;" x1="844" x2="854" y1="712.6094" y2="702.6094"/><line style="stroke:#000000;stroke-width:1.0;" x1="45" x2="844" y1="712.6094" y2="712.6094"/><line style="stroke:#000000;stroke-width:1.0;" x1="844" x2="844" y1="712.6094" y2="970.6094"/><text fill="#000000" font-family="DejaVu Sans" font-size="14" font-weight="bold" lengthAdjust="spacing" textLength="114.1055" x="388.4473" y="728.6045">STM32F412RG</text><text fill="#000000" font-family="DejaVu Sans" font-size="14" font-weight="bold" lengthAdjust="spacing" textLength="208.0791" x="341.4604" y="744.9014">Cortex-M4 @ 96 MHz (HSI)</text><text fill="#000000" font-family="DejaVu Sans" font-size="14" font-weight="bold" lengthAdjust="spacing" textLength="203.2256" x="343.8872" y="761.1982">1 MiB flash / 256 KiB RAM</text></g><!--entity BR--><g id="elem_BR"><rect fill="#FFFFFF" height="55.5938" rx="2.5" ry="2.5" style="stroke:#000000;stroke-width:1.0;" width="180.7803" x="81.5" y="97.6094"/><polygon fill="#FFFFFF" points="245.2803,102.6094,245.2803,116.6094,257.2803,116.6094,257.2803,108.6094,251.2803,102.6094,245.2803,102.6094" style="stroke:#000000;stroke-width:1.0;"/><line style="stroke:#000000;stroke-width:1.0;" x1="251.2803" x2="251.2803" y1="102.6094" y2="108.6094"/><line style="stroke:#000000;stroke-width:1.0;" x1="257.2803" x2="251.2803" y1="108.6094" y2="108.6094"/><text fill="#000000" font-family="DejaVu Sans" font-size="14" lengthAdjust="spacing" textLength="66.541" x="91.5" y="123.6045">bridge.py</text><text fill="#000000" font-family="DejaVu Sans" font-size="14" lengthAdjust="spacing" textLength="150.7803" x="91.5" y="139.9014">+ bridge-az3166.json</text></g><!--entity PY--><g id="elem_PY"><rect fill="#FFFFFF" height="55.5938" rx="2.5" ry="2.5" style="stroke:#000000;stroke-width:1.0;" width="149.957" x="97" y="214.6094"/><polygon fill="#FFFFFF" points="229.957,219.6094,229.957,233.6094,241.957,233.6094,241.957,225.6094,235.957,219.6094,229.957,219.6094" style="stroke:#000000;stroke-width:1.0;"/><line style="stroke:#000000;stroke-width:1.0;" x1="235.957" x2="235.957" y1="219.6094" y2="225.6094"/><line style="stroke:#000000;stroke-width:1.0;" x1="241.957" x2="235.957" y1="225.6094" y2="225.6094"/><text fill="#000000" font-family="DejaVu Sans" font-size="14" lengthAdjust="spacing" textLength="119.957" x="107" y="240.6045">python-can slcan</text><text fill="#000000" font-family="DejaVu Sans" font-size="14" lengthAdjust="spacing" textLength="71.374" x="107" y="256.9014">+ pyserial</text></g><!--entity TTY--><g id="elem_TTY"><ellipse cx="172" cy="376.6094" fill="#FFFFFF" rx="8" ry="8" style="stroke:#000000;stroke-width:1.0;"/><text fill="#000000" font-family="DejaVu Sans" font-size="14" lengthAdjust="spacing" textLength="117.6738" x="113.1631" y="406.6045">/dev/serial/by-id/</text><text fill="#000000" font-family="DejaVu Sans" font-size="14" lengthAdjust="spacing" textLength="104.4941" x="113.1631" y="422.9014">...STLink...-if02</text></g><!--entity VCP--><g id="elem_VCP"><rect fill="#FFFFFF" height="46.2969" rx="2.5" ry="2.5" style="stroke:#000000;stroke-width:1.0;" width="146.6885" x="98.5" y="583.1094"/><rect fill="#FFFFFF" height="10" style="stroke:#000000;stroke-width:1.0;" width="15" x="225.1885" y="588.1094"/><rect fill="#FFFFFF" height="2" style="stroke:#000000;stroke-width:1.0;" width="4" x="223.1885" y="590.1094"/><rect fill="#FFFFFF" height="2" style="stroke:#000000;stroke-width:1.0;" width="4" x="223.1885" y="594.1094"/><text fill="#000000" font-family="DejaVu Sans" font-size="14" lengthAdjust="spacing" textLength="106.6885" x="113.5" y="616.1045">USB CDC (VCP)</text></g><!--entity MSD--><g id="elem_MSD"><rect fill="#FFFFFF" height="62.5938" rx="2.5" ry="2.5" style="stroke:#000000;stroke-width:1.0;" width="189.584" x="281" y="574.6094"/><rect fill="#FFFFFF" height="10" style="stroke:#000000;stroke-width:1.0;" width="15" x="450.584" y="579.6094"/><rect fill="#FFFFFF" height="2" style="stroke:#000000;stroke-width:1.0;" width="4" x="448.584" y="581.6094"/><rect fill="#FFFFFF" height="2" style="stroke:#000000;stroke-width:1.0;" width="4" x="448.584" y="585.6094"/><text fill="#000000" font-family="DejaVu Sans" font-size="14" lengthAdjust="spacing" textLength="127.627" x="296" y="607.6045">USB mass storage</text><text fill="#000000" font-family="DejaVu Sans" font-size="14" lengthAdjust="spacing" textLength="149.584" x="296" y="623.9014">(drag-and-drop flash)</text></g><!--entity FW--><g id="elem_FW"><rect fill="#FFFFFF" height="55.5938" rx="2.5" ry="2.5" style="stroke:#000000;stroke-width:1.0;" width="252.8721" x="289.5" y="774.6094"/><polygon fill="#FFFFFF" points="525.3721,779.6094,525.3721,793.6094,537.3721,793.6094,537.3721,785.6094,531.3721,779.6094,525.3721,779.6094" style="stroke:#000000;stroke-width:1.0;"/><line style="stroke:#000000;stroke-width:1.0;" x1="531.3721" x2="531.3721" y1="779.6094" y2="785.6094"/><line style="stroke:#000000;stroke-width:1.0;" x1="537.3721" x2="531.3721" y1="785.6094" y2="785.6094"/><text fill="#000000" font-family="DejaVu Sans" font-size="14" lengthAdjust="spacing" textLength="222.8721" x="299.5" y="800.6045">threadx-zonal-lights-az3166.bin</text><text fill="#000000" font-family="DejaVu Sans" font-size="14" lengthAdjust="spacing" textLength="77.0615" x="299.5" y="816.9014">(~16.5 KB)</text></g><!--entity U6--><g id="elem_U6"><rect fill="#FFFFFF" height="46.2969" rx="2.5" ry="2.5" style="stroke:#000000;stroke-width:1.0;" width="176.7324" x="60.5" y="900.1094"/><rect fill="#FFFFFF" height="10" style="stroke:#000000;stroke-width:1.0;" width="15" x="217.2324" y="905.1094"/><rect fill="#FFFFFF" height="2" style="stroke:#000000;stroke-width:1.0;" width="4" x="215.2324" y="907.1094"/><rect fill="#FFFFFF" height="2" style="stroke:#000000;stroke-width:1.0;" width="4" x="215.2324" y="911.1094"/><text fill="#000000" font-family="DejaVu Sans" font-size="14" lengthAdjust="spacing" textLength="136.7324" x="75.5" y="933.1045">USART6 PA11/PA12</text></g><!--entity GPIO--><g id="elem_GPIO"><rect fill="#FFFFFF" height="62.5938" rx="2.5" ry="2.5" style="stroke:#000000;stroke-width:1.0;" width="266.2217" x="273" y="891.6094"/><rect fill="#FFFFFF" height="10" style="stroke:#000000;stroke-width:1.0;" width="15" x="519.2217" y="896.6094"/><rect fill="#FFFFFF" height="2" style="stroke:#000000;stroke-width:1.0;" width="4" x="517.2217" y="898.6094"/><rect fill="#FFFFFF" height="2" style="stroke:#000000;stroke-width:1.0;" width="4" x="517.2217" y="902.6094"/><text fill="#000000" font-family="DejaVu Sans" font-size="14" lengthAdjust="spacing" textLength="182.6357" x="288" y="924.6045">GPIO: PB4 red, PC13 user,</text><text fill="#000000" font-family="DejaVu Sans" font-size="14" lengthAdjust="spacing" textLength="226.2217" x="288" y="940.9014">PA15 Azure, PB2 Wi-Fi, PC7 blue</text></g><!--entity I2C--><g id="elem_I2C"><rect fill="#FFFFFF" height="46.2969" rx="2.5" ry="2.5" style="stroke:#000000;stroke-width:1.0;" width="262.5029" x="574.5" y="900.1094"/><rect fill="#FFFFFF" height="10" style="stroke:#000000;stroke-width:1.0;" width="15" x="817.0029" y="905.1094"/><rect fill="#FFFFFF" height="2" style="stroke:#000000;stroke-width:1.0;" width="4" x="815.0029" y="907.1094"/><rect fill="#FFFFFF" height="2" style="stroke:#000000;stroke-width:1.0;" width="4" x="815.0029" y="911.1094"/><text fill="#000000" font-family="DejaVu Sans" font-size="14" lengthAdjust="spacing" textLength="222.5029" x="589.5" y="933.1045">I2C1 PB8/PB9 &#8594; SSD1306 OLED</text></g><!--link BR to PY--><g id="link_BR_PY"><path d="M172,153.8594 C172,172.1994 172,190.2594 172,208.5494 " fill="none" id="BR-to-PY" style="stroke:#000000;stroke-width:1.0;"/><polygon fill="#000000" points="172,214.5494,176,205.5494,172,209.5494,168,205.5494,172,214.5494" style="stroke:#000000;stroke-width:1.0;"/></g><!--link PY to TTY--><g id="link_PY_TTY"><path d="M172,270.6394 C172,300.9594 172,342.3794 172,361.3594 " fill="none" id="PY-to-TTY" style="stroke:#000000;stroke-width:1.0;"/><polygon fill="#000000" points="172,367.3594,176,358.3594,172,362.3594,168,358.3594,172,367.3594" style="stroke:#000000;stroke-width:1.0;"/></g><!--link TTY to VCP--><g id="link_TTY_VCP"><path d="M172,385.7094 C172,417.3694 172,527.4694 172,576.7494 " fill="none" id="TTY-to-VCP" style="stroke:#000000;stroke-width:1.0;"/><polygon fill="#000000" points="172,582.7494,176,573.7494,172,577.7494,168,573.7494,172,582.7494" style="stroke:#000000;stroke-width:1.0;"/><text fill="#000000" font-family="DejaVu Sans" font-size="13" lengthAdjust="spacing" textLength="26.6855" x="173" y="466.6763">USB</text></g><!--link VCP to U6--><g id="link_VCP_U6"><path d="M165.24,629.1494 C160.22,646.6894 153.78,671.9694 151,694.6094 C141.81,769.4894 144.8791,853.2791 147.1991,894.0491 " fill="none" id="VCP-to-U6" style="stroke:#000000;stroke-width:1.0;"/><polygon fill="#000000" points="147.54,900.0394,151.0222,890.8267,147.2559,895.0475,143.0351,891.2812,147.54,900.0394" style="stroke:#000000;stroke-width:1.0;"/><text fill="#000000" font-family="DejaVu Sans" font-size="13" lengthAdjust="spacing" textLength="119.5391" x="152" y="807.1763">UART 115200 8N1</text></g><!--link MSD to FW--><g id="link_MSD_FW"><path d="M382.34,637.9294 C390.07,675.5294 401.8115,732.6223 409.1915,768.5123 " fill="none" id="MSD-to-FW" style="stroke:#000000;stroke-width:1.0;stroke-dasharray:7.0,7.0;"/><polygon fill="#000000" points="410.4,774.3894,412.5053,764.7682,409.3929,769.4918,404.6692,766.3795,410.4,774.3894" style="stroke:#000000;stroke-width:1.0;"/><text fill="#000000" font-family="DejaVu Sans" font-size="13" lengthAdjust="spacing" textLength="97.8491" x="392" y="682.6763">programs flash</text></g><!--link FW to U6--><g id="link_FW_U6"><path d="M355.08,830.6494 C307.83,851.6194 248.6339,877.885 204.4139,897.515 " fill="none" id="FW-to-U6" style="stroke:#000000;stroke-width:1.0;"/><polygon fill="#000000" points="198.93,899.9494,208.7789,899.9537,203.5,897.9207,205.533,892.6418,198.93,899.9494" style="stroke:#000000;stroke-width:1.0;"/></g><!--link FW to GPIO--><g id="link_FW_GPIO"><path d="M413.71,830.7994 C412.18,848.8394 410.6841,866.5706 409.1041,885.3106 " fill="none" id="FW-to-GPIO" style="stroke:#000000;stroke-width:1.0;"/><polygon fill="#000000" points="408.6,891.2894,413.342,882.6572,409.0201,886.3071,405.3703,881.9851,408.6,891.2894" style="stroke:#000000;stroke-width:1.0;"/></g><!--link FW to I2C--><g id="link_FW_I2C"><path d="M482.17,830.6494 C533.49,851.6194 598.186,878.0494 646.216,897.6794 " fill="none" id="FW-to-I2C" style="stroke:#000000;stroke-width:1.0;"/><polygon fill="#000000" points="651.77,899.9494,644.9522,892.8418,647.1416,898.0577,641.9256,900.2471,651.77,899.9494" style="stroke:#000000;stroke-width:1.0;"/></g><!--SRC=[RLF1Kjim4BtxAxOvXIco8uUum85fR3UG0OCdJg1qSb6m4WiSoMCfa8IXntv0Fx5VqhKTffJsO7cr-zxwwQtymMHyoQ78cP2MVX2oO2LRGihdR9MRWPBcac6z5V9xThs2X4dTiemmEOUG5xdQBBaqy2ZuqnkspbYgdeHSm9pbcbjIfTZYJ6a3SG3j2o5NwxqMC5rjdoq0LXenPtS6MhDIf0jk5vkf_0ZDXh1jbtgUVQ-Lh4d-w2zAiJ6PakIEIT0vhXMps6XU2fOt7xb5l926bqX08KxA7vscximsHAJELDgsdOnHs0C6HCmxRiqSZs-jbvtyw6kGYGBwtoenZOwh_YYizJU8P4mkXfVdphLBQ0t0ZdKPu4uj2oKhgrgJn8SWH1kkWxWn0OF_WPPCQz16bMp1fxATufimcPAqL0NCSwQpXXub8T9VtiY8kkxWWBgZqwaCL6ducaG7y1cEF8ZEjj0-IuPxKqaX4dxJ1nnmUnwSutxKZvgcmMGd_O_H9YivIzTagoJBIIuMcT6lmva9zBtzdNfs3yxzHjZWvjzZzKTZ3-8-fGukZSaJxptiD1vU7KFi7q39qtsy9BGBAnpO_bGYgmVzxQhacFTTk15a82h89vZbAruthEZlMmxTW2BXq8dz8_ZruoSaIKYx7G-kBhw4DGiHjOqlbZy2GawgQnFVrb5r3V2fOnmM70FEnwgYAZFngWGU32ZjkPqE75vI2uS2jds27c2nADK2_mlTk6rXhk6zHhNWNOmoVWC0]--></g></svg>