<svg xmlns="http://www.w3.org/2000/svg" xmlns:xlink="http://www.w3.org/1999/xlink" contentStyleType="text/css" height="1275px" preserveAspectRatio="none" style="width:769px;height:1275px;background:#FFFFFF;" version="1.1" viewBox="0 0 769 1275" width="769px" zoomAndPan="magnify"><title>DD-04 USART6 driver &#8212; ISR and TX ring</title><defs/><g><text fill="#000000" font-family="DejaVu Sans" font-size="22" font-weight="bold" lengthAdjust="spacing" textLength="493.1201" x="136.9207" y="35.4209">DD-04 USART6 driver &#8212; ISR and TX ring</text><rect fill="#FFFFFF" height="20.9531" style="stroke:#FFFFFF;stroke-width:1.0;" width="746.9614" x="10" y="54.3545"/><ellipse cx="165.1895" cy="90.3076" fill="#FFFFFF" rx="10" ry="10" style="stroke:#000000;stroke-width:1.0;"/><rect fill="#FFFFFF" height="33.9688" rx="12.5" ry="12.5" style="stroke:#000000;stroke-width:1.0;" width="90.5117" x="119.9336" y="120.3076"/><text fill="#000000" font-family="DejaVu Sans" font-size="12" lengthAdjust="spacing" textLength="70.5117" x="129.9336" y="141.4463">status = SR</text><rect fill="#FFFFFF" height="33.9688" rx="12.5" ry="12.5" style="stroke:#000000;stroke-width:1.0;" width="160.2793" x="85.0498" y="222.6787"/><text fill="#000000" font-family="DejaVu Sans" font-size="12" lengthAdjust="spacing" textLength="140.2793" x="95.0498" y="243.8174">byte = DR (clears ORE)</text><rect fill="#FFFFFF" height="33.9688" rx="12.5" ry="12.5" style="stroke:#000000;stroke-width:1.0;" width="93.2656" x="118.5566" y="325.0498"/><text fill="#000000" font-family="DejaVu Sans" font-size="12" lengthAdjust="spacing" textLength="73.2656" x="128.5566" y="346.1885">overruns++</text><polygon fill="#FFFFFF" points="150.6445,276.6475,179.7344,276.6475,191.7344,288.6475,179.7344,300.6475,150.6445,300.6475,138.6445,288.6475,150.6445,276.6475" style="stroke:#000000;stroke-width:1.0;"/><text fill="#000000" font-family="DejaVu Sans" font-size="11" lengthAdjust="spacing" textLength="19.0083" x="169.1895" y="310.8579">yes</text><text fill="#000000" font-family="DejaVu Sans" font-size="11" lengthAdjust="spacing" textLength="29.0898" x="150.6445" y="292.4556">ORE?</text><polygon fill="#FFFFFF" points="165.1895,379.0186,177.1895,391.0186,165.1895,403.0186,153.1895,391.0186,165.1895,379.0186" style="stroke:#000000;stroke-width:1.0;"/><rect fill="#FFFFFF" height="47.9375" rx="12.5" ry="12.5" style="stroke:#000000;stroke-width:1.0;" width="298.3789" x="16" y="471.4209"/><text fill="#000000" font-family="DejaVu Sans" font-size="12" lengthAdjust="spacing" textLength="103.3418" x="26" y="492.5596">rx_callback(byte)</text><text fill="#000000" font-family="DejaVu Sans" font-size="12" lengthAdjust="spacing" textLength="278.3789" x="26" y="506.5283">&#8594; tx_queue_send(NO_WAIT) or rx_overflow++</text><polygon fill="#FFFFFF" points="147.0916,423.0186,183.2874,423.0186,195.2874,435.0186,183.2874,447.0186,147.0916,447.0186,135.0916,435.0186,147.0916,423.0186" style="stroke:#000000;stroke-width:1.0;"/><text fill="#000000" font-family="DejaVu Sans" font-size="11" lengthAdjust="spacing" textLength="19.0083" x="169.1895" y="457.229">yes</text><text fill="#000000" font-family="DejaVu Sans" font-size="11" lengthAdjust="spacing" textLength="36.1958" x="147.0916" y="438.8267">RXNE?</text><polygon fill="#FFFFFF" points="165.1895,539.3584,177.1895,551.3584,165.1895,563.3584,153.1895,551.3584,165.1895,539.3584" style="stroke:#000000;stroke-width:1.0;"/><polygon fill="#FFFFFF" points="126.343,174.2764,204.0359,174.2764,216.0359,186.2764,204.0359,198.2764,126.343,198.2764,114.343,186.2764,126.343,174.2764" style="stroke:#000000;stroke-width:1.0;"/><text fill="#000000" font-family="DejaVu Sans" font-size="11" lengthAdjust="spacing" textLength="19.0083" x="169.1895" y="208.4868">yes</text><text fill="#000000" font-family="DejaVu Sans" font-size="11" lengthAdjust="spacing" textLength="77.6929" x="126.343" y="190.0845">RXNE or ORE?</text><polygon fill="#FFFFFF" points="165.1895,583.3584,177.1895,595.3584,165.1895,607.3584,153.1895,595.3584,165.1895,583.3584" style="stroke:#000000;stroke-width:1.0;"/><polygon fill="#FFFFFF" points="132.1116,675.7607,198.2673,675.7607,210.2673,687.7607,198.2673,699.7607,132.1116,699.7607,120.1116,687.7607,132.1116,675.7607" style="stroke:#000000;stroke-width:1.0;"/><text fill="#000000" font-family="DejaVu Sans" font-size="11" lengthAdjust="spacing" textLength="66.1558" x="132.1116" y="691.5688">ring empty?</text><text fill="#000000" font-family="DejaVu Sans" font-size="11" lengthAdjust="spacing" textLength="19.0083" x="101.1033" y="685.1665">yes</text><text fill="#000000" font-family="DejaVu Sans" font-size="11" lengthAdjust="spacing" textLength="13.7017" x="210.2673" y="685.1665">no</text><rect fill="#FFFFFF" height="33.9688" rx="12.5" ry="12.5" style="stroke:#000000;stroke-width:1.0;" width="100.959" x="47.7324" y="709.7607"/><text fill="#000000" font-family="DejaVu Sans" font-size="12" lengthAdjust="spacing" textLength="80.959" x="57.7324" y="730.8994">disable TXEIE</text><rect fill="#FFFFFF" height="33.9688" rx="12.5" ry="12.5" style="stroke:#000000;stroke-width:1.0;" width="126.9512" x="168.6914" y="709.7607"/><text fill="#000000" font-family="DejaVu Sans" font-size="12" lengthAdjust="spacing" textLength="106.9512" x="178.6914" y="730.8994">DR = ring[tail++]</text><polygon fill="#FFFFFF" points="165.1895,749.7295,177.1895,761.7295,165.1895,773.7295,153.1895,761.7295,165.1895,749.7295" style="stroke:#000000;stroke-width:1.0;"/><polygon fill="#FFFFFF" points="122.124,627.3584,208.2549,627.3584,220.2549,639.3584,208.2549,651.3584,122.124,651.3584,110.124,639.3584,122.124,627.3584" style="stroke:#000000;stroke-width:1.0;"/><text fill="#000000" font-family="DejaVu Sans" font-size="11" lengthAdjust="spacing" textLength="19.0083" x="169.1895" y="661.5688">yes</text><text fill="#000000" font-family="DejaVu Sans" font-size="11" lengthAdjust="spacing" textLength="86.1309" x="122.124" y="643.1665">TXEIE and TXE?</text><polygon fill="#FFFFFF" points="165.1895,793.7295,177.1895,805.7295,165.1895,817.7295,153.1895,805.7295,165.1895,793.7295" style="stroke:#000000;stroke-width:1.0;"/><ellipse cx="165.1895" cy="848.7295" fill="none" rx="11" ry="11" style="stroke:#000000;stroke-width:1.0;"/><ellipse cx="165.1895" cy="848.7295" fill="#FFFFFF" rx="6" ry="6" style="stroke:#000000;stroke-width:1.0;"/><line style="stroke:#000000;stroke-width:1.0;" x1="10" x2="10" y1="54.3545" y2="1268.5225"/><ellipse cx="546.7397" cy="879.7295" fill="#FFFFFF" rx="10" ry="10" style="stroke:#000000;stroke-width:1.0;"/><rect fill="#FFFFFF" height="33.9688" rx="12.5" ry="12.5" style="stroke:#000000;stroke-width:1.0;" width="245.1172" x="424.1812" y="958.1318"/><text fill="#000000" font-family="DejaVu Sans" font-size="12" lengthAdjust="spacing" textLength="225.1172" x="434.1812" y="979.2705">return false (caller retries, max 0.5 s)</text><ellipse cx="546.7397" cy="1031.6162" fill="none" rx="11" ry="11" style="stroke:#000000;stroke-width:1.0;"/><ellipse cx="546.7397" cy="1031.6162" fill="#FFFFFF" rx="6" ry="6" style="stroke:#000000;stroke-width:1.0;"/><polygon fill="#FFFFFF" points="484.7278,909.7295,608.7517,909.7295,620.7517,921.7295,608.7517,933.7295,484.7278,933.7295,472.7278,921.7295,484.7278,909.7295" style="stroke:#000000;stroke-width:1.0;"/><text fill="#000000" font-family="DejaVu Sans" font-size="11" lengthAdjust="spacing" textLength="13.7017" x="550.7397" y="943.9399">no</text><text fill="#000000" font-family="DejaVu Sans" font-size="11" lengthAdjust="spacing" textLength="124.0239" x="484.7278" y="925.5376">free space &gt;= length?</text><rect fill="#FFFFFF" height="33.9688" rx="12.5" ry="12.5" style="stroke:#000000;stroke-width:1.0;" width="244.2207" x="424.6294" y="1084.6162"/><text fill="#000000" font-family="DejaVu Sans" font-size="12" lengthAdjust="spacing" textLength="224.2207" x="434.6294" y="1105.7549">copy line into ring; DMB; head = new</text><rect fill="#FFFFFF" height="33.9688" rx="12.5" ry="12.5" style="stroke:#000000;stroke-width:1.0;" width="197.7266" x="447.8765" y="1138.585"/><text fill="#000000" font-family="DejaVu Sans" font-size="12" lengthAdjust="spacing" textLength="177.7266" x="457.8765" y="1159.7236">IRQ off; TXEIE on; IRQ restore</text><rect fill="#FFFFFF" height="33.9688" rx="12.5" ry="12.5" style="stroke:#000000;stroke-width:1.0;" width="85.6074" x="503.936" y="1192.5537"/><text fill="#000000" font-family="DejaVu Sans" font-size="12" lengthAdjust="spacing" textLength="65.6074" x="513.936" y="1213.6924">return true</text><ellipse cx="546.7397" cy="1257.5225" fill="none" rx="11" ry="11" style="stroke:#000000;stroke-width:1.0;"/><ellipse cx="546.7397" cy="1257.5225" fill="#FFFFFF" rx="6" ry="6" style="stroke:#000000;stroke-width:1.0;"/><line style="stroke:#000000;stroke-width:1.0;" x1="361.3789" x2="361.3789" y1="54.3545" y2="1268.5225"/><line style="stroke:#000000;stroke-width:1.0;" x1="755.1006" x2="755.1006" y1="54.3545" y2="1268.5225"/><line style="stroke:#000000;stroke-width:1.0;" x1="165.1895" x2="165.1895" y1="100.3076" y2="120.3076"/><polygon fill="#000000" points="161.1895,110.3076,165.1895,120.3076,169.1895,110.3076,165.1895,114.3076" style="stroke:#000000;stroke-width:1.0;"/><line style="stroke:#000000;stroke-width:1.0;" x1="165.1895" x2="165.1895" y1="300.6475" y2="325.0498"/><polygon fill="#000000" points="161.1895,315.0498,165.1895,325.0498,169.1895,315.0498,165.1895,319.0498" style="stroke:#000000;stroke-width:1.0;"/><line style="stroke:#000000;stroke-width:1.0;" x1="191.7344" x2="221.8223" y1="288.6475" y2="288.6475"/><polygon fill="#000000" points="217.8223,332.0342,221.8223,342.0342,225.8223,332.0342,221.8223,336.0342" style="stroke:#000000;stroke-width:1.0;"/><line style="stroke:#000000;stroke-width:1.0;" x1="221.8223" x2="221.8223" y1="288.6475" y2="391.0186"/><line style="stroke:#000000;stroke-width:1.0;" x1="221.8223" x2="177.1895" y1="391.0186" y2="391.0186"/><polygon fill="#000000" points="187.1895,387.0186,177.1895,391.0186,187.1895,395.0186,183.1895,391.0186" style="stroke:#000000;stroke-width:1.0;"/><line style="stroke:#000000;stroke-width:1.0;" x1="165.1895" x2="165.1895" y1="359.0186" y2="379.0186"/><polygon fill="#000000" points="161.1895,369.0186,165.1895,379.0186,169.1895,369.0186,165.1895,373.0186" style="stroke:#000000;stroke-width:1.0;"/><line style="stroke:#000000;stroke-width:1.0;" x1="165.1895" x2="165.1895" y1="256.6475" y2="276.6475"/><polygon fill="#000000" points="161.1895,266.6475,165.1895,276.6475,169.1895,266.6475,165.1895,270.6475" style="stroke:#000000;stroke-width:1.0;"/><line style="stroke:#000000;stroke-width:1.0;" x1="165.1895" x2="165.1895" y1="447.0186" y2="471.4209"/><polygon fill="#000000" points="161.1895,461.4209,165.1895,471.4209,169.1895,461.4209,165.1895,465.4209" style="stroke:#000000;stroke-width:1.0;"/><line style="stroke:#000000;stroke-width:1.0;" x1="195.2874" x2="324.3789" y1="435.0186" y2="435.0186"/><polygon fill="#000000" points="320.3789,485.3896,324.3789,495.3896,328.3789,485.3896,324.3789,489.3896" style="stroke:#000000;stroke-width:1.0;"/><line style="stroke:#000000;stroke-width:1.0;" x1="324.3789" x2="324.3789" y1="435.0186" y2="551.3584"/><line style="stroke:#000000;stroke-width:1.0;" x1="324.3789" x2="177.1895" y1="551.3584" y2="551.3584"/><polygon fill="#000000" points="187.1895,547.3584,177.1895,551.3584,187.1895,555.3584,183.1895,551.3584" style="stroke:#000000;stroke-width:1.0;"/><line style="stroke:#000000;stroke-width:1.0;" x1="165.1895" x2="165.1895" y1="519.3584" y2="539.3584"/><polygon fill="#000000" points="161.1895,529.3584,165.1895,539.3584,169.1895,529.3584,165.1895,533.3584" style="stroke:#000000;stroke-width:1.0;"/><line style="stroke:#000000;stroke-width:1.0;" x1="165.1895" x2="165.1895" y1="403.0186" y2="423.0186"/><polygon fill="#000000" points="161.1895,413.0186,165.1895,423.0186,169.1895,413.0186,165.1895,417.0186" style="stroke:#000000;stroke-width:1.0;"/><line style="stroke:#000000;stroke-width:1.0;" x1="165.1895" x2="165.1895" y1="198.2764" y2="222.6787"/><polygon fill="#000000" points="161.1895,212.6787,165.1895,222.6787,169.1895,212.6787,165.1895,216.6787" style="stroke:#000000;stroke-width:1.0;"/><line style="stroke:#000000;stroke-width:1.0;" x1="216.0359" x2="342.3789" y1="186.2764" y2="186.2764"/><polygon fill="#000000" points="338.3789,383.0186,342.3789,393.0186,346.3789,383.0186,342.3789,387.0186" style="stroke:#000000;stroke-width:1.0;"/><line style="stroke:#000000;stroke-width:1.0;" x1="342.3789" x2="342.3789" y1="186.2764" y2="595.3584"/><line style="stroke:#000000;stroke-width:1.0;" x1="342.3789" x2="177.1895" y1="595.3584" y2="595.3584"/><polygon fill="#000000" points="187.1895,591.3584,177.1895,595.3584,187.1895,599.3584,183.1895,595.3584" style="stroke:#000000;stroke-width:1.0;"/><line style="stroke:#000000;stroke-width:1.0;" x1="165.1895" x2="165.1895" y1="563.3584" y2="583.3584"/><polygon fill="#000000" points="161.1895,573.3584,165.1895,583.3584,169.1895,573.3584,165.1895,577.3584" style="stroke:#000000;stroke-width:1.0;"/><line style="stroke:#000000;stroke-width:1.0;" x1="165.1895" x2="165.1895" y1="154.2764" y2="174.2764"/><polygon fill="#000000" points="161.1895,164.2764,165.1895,174.2764,169.1895,164.2764,165.1895,168.2764" style="stroke:#000000;stroke-width:1.0;"/><line style="stroke:#000000;stroke-width:1.0;" x1="120.1116" x2="98.2119" y1="687.7607" y2="687.7607"/><line style="stroke:#000000;stroke-width:1.0;" x1="98.2119" x2="98.2119" y1="687.7607" y2="709.7607"/><polygon fill="#000000" points="94.2119,699.7607,98.2119,709.7607,102.2119,699.7607,98.2119,703.7607" style="stroke:#000000;stroke-width:1.0;"/><line style="stroke:#000000;stroke-width:1.0;" x1="210.2673" x2="232.167" y1="687.7607" y2="687.7607"/><line style="stroke:#000000;stroke-width:1.0;" x1="232.167" x2="232.167" y1="687.7607" y2="709.7607"/><polygon fill="#000000" points="228.167,699.7607,232.167,709.7607,236.167,699.7607,232.167,703.7607" style="stroke:#000000;stroke-width:1.0;"/><line style="stroke:#000000;stroke-width:1.0;" x1="98.2119" x2="98.2119" y1="743.7295" y2="761.7295"/><line style="stroke:#000000;stroke-width:1.0;" x1="98.2119" x2="153.1895" y1="761.7295" y2="761.7295"/><polygon fill="#000000" points="143.1895,757.7295,153.1895,761.7295,143.1895,765.7295,147.1895,761.7295" style="stroke:#000000;stroke-width:1.0;"/><line style="stroke:#000000;stroke-width:1.0;" x1="232.167" x2="232.167" y1="743.7295" y2="761.7295"/><line style="stroke:#000000;stroke-width:1.0;" x1="232.167" x2="177.1895" y1="761.7295" y2="761.7295"/><polygon fill="#000000" points="187.1895,757.7295,177.1895,761.7295,187.1895,765.7295,183.1895,761.7295" style="stroke:#000000;stroke-width:1.0;"/><line style="stroke:#000000;stroke-width:1.0;" x1="165.1895" x2="165.1895" y1="651.3584" y2="675.7607"/><polygon fill="#000000" points="161.1895,665.7607,165.1895,675.7607,169.1895,665.7607,165.1895,669.7607" style="stroke:#000000;stroke-width:1.0;"/><line style="stroke:#000000;stroke-width:1.0;" x1="220.2549" x2="315.6426" y1="639.3584" y2="639.3584"/><polygon fill="#000000" points="311.6426,714.7451,315.6426,724.7451,319.6426,714.7451,315.6426,718.7451" style="stroke:#000000;stroke-width:1.0;"/><line style="stroke:#000000;stroke-width:1.0;" x1="315.6426" x2="315.6426" y1="639.3584" y2="805.7295"/><line style="stroke:#000000;stroke-width:1.0;" x1="315.6426" x2="177.1895" y1="805.7295" y2="805.7295"/><polygon fill="#000000" points="187.1895,801.7295,177.1895,805.7295,187.1895,809.7295,183.1895,805.7295" style="stroke:#000000;stroke-width:1.0;"/><line style="stroke:#000000;stroke-width:1.0;" x1="165.1895" x2="165.1895" y1="773.7295" y2="793.7295"/><polygon fill="#000000" points="161.1895,783.7295,165.1895,793.7295,169.1895,783.7295,165.1895,787.7295" style="stroke:#000000;stroke-width:1.0;"/><line style="stroke:#000000;stroke-width:1.0;" x1="165.1895" x2="165.1895" y1="607.3584" y2="627.3584"/><polygon fill="#000000" points="161.1895,617.3584,165.1895,627.3584,169.1895,617.3584,165.1895,621.3584" style="stroke:#000000;stroke-width:1.0;"/><line style="stroke:#000000;stroke-width:1.0;" x1="165.1895" x2="165.1895" y1="817.7295" y2="837.7295"/><polygon fill="#000000" points="161.1895,827.7295,165.1895,837.7295,169.1895,827.7295,165.1895,831.7295" style="stroke:#000000;stroke-width:1.0;"/><line style="stroke:#000000;stroke-width:1.0;" x1="546.7397" x2="546.7397" y1="992.1006" y2="1020.6162"/><polygon fill="#000000" points="542.7397,1010.6162,546.7397,1020.6162,550.7397,1010.6162,546.7397,1014.6162" style="stroke:#000000;stroke-width:1.0;"/><line style="stroke:#000000;stroke-width:1.0;" x1="546.7397" x2="546.7397" y1="933.7295" y2="958.1318"/><polygon fill="#000000" points="542.7397,948.1318,546.7397,958.1318,550.7397,948.1318,546.7397,952.1318" style="stroke:#000000;stroke-width:1.0;"/><line style="stroke:#000000;stroke-width:1.0;" x1="620.7517" x2="679.2983" y1="921.7295" y2="921.7295"/><polygon fill="#000000" points="675.2983,990.6162,679.2983,1000.6162,683.2983,990.6162,679.2983,994.6162" style="stroke:#000000;stroke-width:1.0;"/><line style="stroke:#000000;stroke-width:1.0;" x1="679.2983" x2="679.2983" y1="921.7295" y2="1064.6162"/><line style="stroke:#000000;stroke-width:1.0;" x1="679.2983" x2="546.7397" y1="1064.6162" y2="1064.6162"/><line style="stroke:#000000;stroke-width:1.0;" x1="546.7397" x2="546.7397" y1="1064.6162" y2="1084.6162"/><polygon fill="#000000" points="542.7397,1074.6162,546.7397,1084.6162,550.7397,1074.6162,546.7397,1078.6162" style="stroke:#000000;stroke-width:1.0;"/><line style="stroke:#000000;stroke-width:1.0;" x1="546.7397" x2="546.7397" y1="889.7295" y2="909.7295"/><polygon fill="#000000" points="542.7397,899.7295,546.7397,909.7295,550.7397,899.7295,546.7397,903.7295" style="stroke:#000000;stroke-width:1.0;"/><line style="stroke:#000000;stroke-width:1.0;" x1="546.7397" x2="546.7397" y1="1118.585" y2="1138.585"/><polygon fill="#000000" points="542.7397,1128.585,546.7397,1138.585,550.7397,1128.585,546.7397,1132.585" style="stroke:#000000;stroke-width:1.0;"/><line style="stroke:#000000;stroke-width:1.0;" x1="546.7397" x2="546.7397" y1="1172.5537" y2="1192.5537"/><polygon fill="#000000" points="542.7397,1182.5537,546.7397,1192.5537,550.7397,1182.5537,546.7397,1186.5537" style="stroke:#000000;stroke-width:1.0;"/><line style="stroke:#000000;stroke-width:1.0;" x1="546.7397" x2="546.7397" y1="1226.5225" y2="1246.5225"/><polygon fill="#000000" points="542.7397,1236.5225,546.7397,1246.5225,550.7397,1236.5225,546.7397,1240.5225" style="stroke:#000000;stroke-width:1.0;"/><text fill="#000000" font-family="DejaVu Sans" font-size="18" lengthAdjust="spacing" textLength="183.7266" x="93.8262" y="71.0625">USART6_IRQHandler</text><text fill="#000000" font-family="DejaVu Sans" font-size="18" lengthAdjust="spacing" textLength="383.7217" x="366.3789" y="71.0625">board_uart_write (thread, under uart_lock)</text><!--SRC=[RLBDZjCm4BxdAOOz9Ug2zW0S6XMqA4NqG5Ua1Ie1YgR9P6Fgsc7iq5RgOKyy0E89zqaO9mMje9T4ySptu-_B8z_Gbg3Lg4paDigqoBY5Ychij7zjZP-Zp2yo-eeVEbYWSHUHLruJPDdZgwVmVd6TBvz3nUexCTpV_OBP8WSq5InNmChSFc1r3LPs9sTGetOK7GTmCSlVlH649Zv6pYFxQ2mltpcOm29F8rL3dA_cKx0CD_dqPGBYsa1y89T40EFrmPEiPZd4fIPa5xQIL4O1UGOX62jskJDkD0fxP2fLd_Q3qXa0xuiIjLvZkOc3OFBPtF_u2NvVVEkeey89Hpo_AJvUpvP9S2g0859hktieCZo3q78rdKrFKVsd61P2V43RrX_E-AcKmxNKqBFqz18fnCQUvfB6f2_WaqUbHwCl_rfmthRHSMsHgwAJq8iTAyanzWqJLfVGcKeQxIVQbflaJpV1MSr4u5ei2LvCG9EvzSrVZuE5CPFls0nLIp6IdT398Ijobx35FLmzUGQkxwdtCjWQbxOzW5Q6G1bl-okaaBrzbK8ZlkHIXdPfD9QV1cnTfqC0O4qAuOX9k9XauQJlkPEl8F0R]--></g></svg>